<svg xmlns="http://www.w3.org/2000/svg" width="760" height="220" viewBox="0 0 760 220">
  <rect width="760" height="220" fill="#0f1420"/>
  <text x="380" y="30" text-anchor="middle" font-family="sans-serif" font-size="17" font-weight="bold" fill="#e8ecf4">Iteration loop (R24) — the core</text>
  <g font-family="sans-serif" font-size="12" font-weight="bold">
    <rect x="40" y="80" width="140" height="60" rx="10" fill="#1c2434" stroke="#e8b64c" stroke-width="1.5"/>
    <text x="110" y="116" text-anchor="middle" fill="#e8ecf4">Work unit</text>
    <rect x="240" y="80" width="140" height="60" rx="10" fill="#1c2434" stroke="#2ecc71" stroke-width="1.5"/>
    <text x="310" y="116" text-anchor="middle" fill="#e8ecf4">Verify (real)</text>
    <rect x="440" y="80" width="140" height="60" rx="10" fill="#1c2434" stroke="#4a9eff" stroke-width="1.5"/>
    <text x="510" y="116" text-anchor="middle" fill="#e8ecf4">Critique</text>
    <rect x="610" y="80" width="120" height="60" rx="10" fill="#1c2434" stroke="#e05252" stroke-width="1.5"/>
    <text x="670" y="116" text-anchor="middle" fill="#e8ecf4">Commit</text>
  </g>
  <path d="M180 110 L 235 110" stroke="#e8b64c" stroke-width="2" marker-end="url(#a)"/>
  <path d="M380 110 L 435 110" stroke="#e8b64c" stroke-width="2" marker-end="url(#a)"/>
  <path d="M580 110 L 605 110" stroke="#e8b64c" stroke-width="2" marker-end="url(#a)"/>
  <path d="M585 140 C 440 190, 250 190, 95 140" stroke="#2ecc71" stroke-width="2" fill="none" stroke-dasharray="6 4" marker-end="url(#a)"/>
  <text x="310" y="190" text-anchor="middle" font-size="11" fill="#8892a6">not done → improve → re-verify (state auto-advances)</text>
  <text x="670" y="165" text-anchor="middle" font-size="10.5" fill="#8892a6">iter+1</text>
  <defs>
    <marker id="a" markerWidth="10" markerHeight="8" refX="9" refY="4" orient="auto">
      <path d="M0 0 L10 4 L0 8 Z" fill="#e8b64c"/>
    </marker>
  </defs>
</svg>
